<svg width="30" height="27" viewBox="0 0 30 27" fill="none" xmlns="http://www.w3.org/2000/svg">
<mask id="path-1-inside-1_4:18" fill="white">
<path fill-rule="evenodd" clip-rule="evenodd" d="M1.68019 2.48377H0.852273H0.36526L0 2.16721V1.65585V0.876625V0.36526L0.36526 0H0.852273H29.1477H29.6104L29.9756 0.36526V0.827923V1.6315V2.09416L29.6104 2.48377H29.1477H28.3198V24.1559H29.1477H29.6347L30 24.5211V24.9838V25.8117V26.25L29.6347 26.6153H29.1477H0.852273H0.38961L0.0487013 26.3231V25.8117V24.9351V24.5698L0.38961 24.1072H0.852273H1.68019V2.48377ZM7.55356 10.4905V12.0296L7.70482 12.3862L8.04515 12.5551H9.59558L9.95482 12.3862L10.125 12.0296V10.4905L9.95482 10.1151L9.59558 9.9837H8.04515L7.70482 10.1151L7.55356 10.4905ZM7.52917 7.03776V5.49866L7.68044 5.12327L8.02077 4.99188H9.57119L9.93044 5.12327L10.1006 5.49866V7.03776L9.93044 7.39438L9.57119 7.56331H8.02077L7.68044 7.39438L7.52917 7.03776ZM14.2012 5.49866V7.03776L14.3525 7.39438L14.6928 7.56331H16.2432L16.6025 7.39438L16.7726 7.03776V5.49866L16.6025 5.12327L16.2432 4.99188H14.6928L14.3525 5.12327L14.2012 5.49866ZM20.8735 7.03776V5.49866L21.0248 5.12327L21.3651 4.99188H22.9155L23.2748 5.12327L23.4449 5.49866V7.03776L23.2748 7.39438L22.9155 7.56331H21.3651L21.0248 7.39438L20.8735 7.03776ZM14.2012 10.5149V12.054L14.3525 12.4106L14.6928 12.5795H16.2432L16.6025 12.4106L16.7726 12.054V10.5149L16.6025 10.1395L16.2432 10.0081H14.6928L14.3525 10.1395L14.2012 10.5149ZM20.849 12.0785V10.5394L21.0003 10.164L21.3406 10.0326H22.891L23.2503 10.164L23.4205 10.5394V12.0785L23.2503 12.4351L22.891 12.604H21.3406L21.0003 12.4351L20.849 12.0785ZM13.3441 24.0829V19.9433H9.9837L10.1542 18.6283L10.6899 17.3621L11.4934 16.3393L12.5892 15.5358L13.685 15.0488L14.9756 14.927L16.1688 15.0488L17.3376 15.5358L18.4578 16.3393L19.31 17.3621L19.8701 18.6283L19.9918 19.9433H16.6558V24.0829H13.3441Z"/>
</mask>
<path fill-rule="evenodd" clip-rule="evenodd" d="M1.68019 2.48377H0.852273H0.36526L0 2.16721V1.65585V0.876625V0.36526L0.36526 0H0.852273H29.1477H29.6104L29.9756 0.36526V0.827923V1.6315V2.09416L29.6104 2.48377H29.1477H28.3198V24.1559H29.1477H29.6347L30 24.5211V24.9838V25.8117V26.25L29.6347 26.6153H29.1477H0.852273H0.38961L0.0487013 26.3231V25.8117V24.9351V24.5698L0.38961 24.1072H0.852273H1.68019V2.48377ZM7.55356 10.4905V12.0296L7.70482 12.3862L8.04515 12.5551H9.59558L9.95482 12.3862L10.125 12.0296V10.4905L9.95482 10.1151L9.59558 9.9837H8.04515L7.70482 10.1151L7.55356 10.4905ZM7.52917 7.03776V5.49866L7.68044 5.12327L8.02077 4.99188H9.57119L9.93044 5.12327L10.1006 5.49866V7.03776L9.93044 7.39438L9.57119 7.56331H8.02077L7.68044 7.39438L7.52917 7.03776ZM14.2012 5.49866V7.03776L14.3525 7.39438L14.6928 7.56331H16.2432L16.6025 7.39438L16.7726 7.03776V5.49866L16.6025 5.12327L16.2432 4.99188H14.6928L14.3525 5.12327L14.2012 5.49866ZM20.8735 7.03776V5.49866L21.0248 5.12327L21.3651 4.99188H22.9155L23.2748 5.12327L23.4449 5.49866V7.03776L23.2748 7.39438L22.9155 7.56331H21.3651L21.0248 7.39438L20.8735 7.03776ZM14.2012 10.5149V12.054L14.3525 12.4106L14.6928 12.5795H16.2432L16.6025 12.4106L16.7726 12.054V10.5149L16.6025 10.1395L16.2432 10.0081H14.6928L14.3525 10.1395L14.2012 10.5149ZM20.849 12.0785V10.5394L21.0003 10.164L21.3406 10.0326H22.891L23.2503 10.164L23.4205 10.5394V12.0785L23.2503 12.4351L22.891 12.604H21.3406L21.0003 12.4351L20.849 12.0785ZM13.3441 24.0829V19.9433H9.9837L10.1542 18.6283L10.6899 17.3621L11.4934 16.3393L12.5892 15.5358L13.685 15.0488L14.9756 14.927L16.1688 15.0488L17.3376 15.5358L18.4578 16.3393L19.31 17.3621L19.8701 18.6283L19.9918 19.9433H16.6558V24.0829H13.3441Z" fill="#030301"/>
<path d="M1.68019 2.48377H3.68019V0.48377H1.68019V2.48377ZM0.36526 2.48377L-0.944602 3.99515L-0.380808 4.48377H0.36526V2.48377ZM0 2.16721H-2V3.08047L-1.30986 3.67859L0 2.16721ZM0 0.36526L-1.41421 -1.04895L-2 -0.463166V0.36526H0ZM0.36526 0V-2H-0.463168L-1.04895 -1.41421L0.36526 0ZM29.6104 0L31.0246 -1.41421L30.4388 -2H29.6104V0ZM29.9756 0.36526H31.9756V-0.463165L31.3899 -1.04895L29.9756 0.36526ZM29.9756 2.09416L31.4347 3.46204L31.9756 2.88505V2.09416H29.9756ZM29.6104 2.48377V4.48377H30.4769L31.0695 3.85165L29.6104 2.48377ZM28.3198 2.48377V0.48377H26.3198V2.48377H28.3198ZM28.3198 24.1559H26.3198V26.1559H28.3198V24.1559ZM29.6347 24.1559L31.049 22.7417L30.4632 22.1559H29.6347V24.1559ZM30 24.5211H32V23.6927L31.4142 23.1069L30 24.5211ZM30 26.25L31.4142 27.6643L32 27.0785V26.25H30ZM29.6347 26.6153V28.6153H30.4632L31.0489 28.0295L29.6347 26.6153ZM0.38961 26.6153L-0.911972 28.1338L-0.350238 28.6153H0.38961V26.6153ZM0.0487013 26.3231H-1.9513V27.243L-1.25288 27.8416L0.0487013 26.3231ZM0.0487013 24.5698L-1.56141 23.3834L-1.9513 23.9126V24.5698H0.0487013ZM0.38961 24.1072V22.1072H-0.621004L-1.2205 22.9208L0.38961 24.1072ZM1.68019 24.1072V26.1072H3.68019V24.1072H1.68019ZM7.55356 12.0296H5.55356V12.4362L5.71233 12.8105L7.55356 12.0296ZM7.55356 10.4905L5.69849 9.743L5.55356 10.1027V10.4905H7.55356ZM7.70482 12.3862L5.86359 13.1672L6.15262 13.8486L6.81562 14.1777L7.70482 12.3862ZM8.04515 12.5551L7.15596 14.3466L7.5761 14.5551H8.04515V12.5551ZM9.59558 12.5551V14.5551H10.0423L10.4466 14.365L9.59558 12.5551ZM9.95482 12.3862L10.8059 14.1961L11.4523 13.8922L11.7599 13.2475L9.95482 12.3862ZM10.125 12.0296L11.93 12.8909L12.125 12.4823V12.0296H10.125ZM10.125 10.4905H12.125V10.0583L11.9466 9.66474L10.125 10.4905ZM9.95482 10.1151L11.7764 9.28935L11.4299 8.52502L10.6418 8.23677L9.95482 10.1151ZM9.59558 9.9837L10.2825 8.10538L9.94983 7.9837H9.59558V9.9837ZM8.04515 9.9837V7.9837H7.67251L7.32486 8.11791L8.04515 9.9837ZM7.70482 10.1151L6.98453 8.2493L6.17434 8.56207L5.84975 9.36761L7.70482 10.1151ZM7.52917 5.49866L5.67411 4.75118L5.52917 5.11087V5.49866H7.52917ZM7.52917 7.03776H5.52917V7.44438L5.68795 7.81872L7.52917 7.03776ZM7.68044 5.12327L6.96015 3.25748L6.14995 3.57025L5.82537 4.37579L7.68044 5.12327ZM8.02077 4.99188V2.99188H7.64812L7.30048 3.12609L8.02077 4.99188ZM9.57119 4.99188L10.2582 3.11356L9.92545 2.99188H9.57119V4.99188ZM9.93044 5.12327L11.752 4.29753L11.4055 3.5332L10.6174 3.24495L9.93044 5.12327ZM10.1006 5.49866H12.1006V5.06652L11.9222 4.67292L10.1006 5.49866ZM10.1006 7.03776L11.9056 7.89907L12.1006 7.49048V7.03776H10.1006ZM9.93044 7.39438L10.7815 9.20427L11.4279 8.90033L11.7355 8.25569L9.93044 7.39438ZM9.57119 7.56331V9.56331H10.018L10.4223 9.3732L9.57119 7.56331ZM8.02077 7.56331L7.13158 9.35477L7.55172 9.56331H8.02077V7.56331ZM7.68044 7.39438L5.83921 8.17534L6.12823 8.85676L6.79124 9.18585L7.68044 7.39438ZM14.2012 7.03776H12.2012V7.44438L12.36 7.81872L14.2012 7.03776ZM14.2012 5.49866L12.3461 4.75118L12.2012 5.11087V5.49866H14.2012ZM14.3525 7.39438L12.5112 8.17534L12.8003 8.85676L13.4633 9.18585L14.3525 7.39438ZM14.6928 7.56331L13.8036 9.35477L14.2237 9.56331H14.6928V7.56331ZM16.2432 7.56331V9.56331H16.69L17.0943 9.3732L16.2432 7.56331ZM16.6025 7.39438L17.4535 9.20427L18.0999 8.90033L18.4075 8.25569L16.6025 7.39438ZM16.7726 7.03776L18.5777 7.89907L18.7726 7.49048V7.03776H16.7726ZM16.7726 5.49866H18.7726V5.06652L18.5942 4.67292L16.7726 5.49866ZM16.6025 5.12327L18.424 4.29753L18.0776 3.5332L17.2894 3.24495L16.6025 5.12327ZM16.2432 4.99188L16.9302 3.11356L16.5975 2.99188H16.2432V4.99188ZM14.6928 4.99188V2.99188H14.3202L13.9725 3.12609L14.6928 4.99188ZM14.3525 5.12327L13.6322 3.25748L12.822 3.57025L12.4974 4.37579L14.3525 5.12327ZM20.8735 5.49866L19.0184 4.75118L18.8735 5.11087V5.49866H20.8735ZM20.8735 7.03776H18.8735V7.44438L19.0323 7.81872L20.8735 7.03776ZM21.0248 5.12327L20.3045 3.25748L19.4943 3.57025L19.1697 4.37579L21.0248 5.12327ZM21.3651 4.99188V2.99188H20.9925L20.6448 3.12609L21.3651 4.99188ZM22.9155 4.99188L23.6025 3.11356L23.2698 2.99188H22.9155V4.99188ZM23.2748 5.12327L25.0963 4.29753L24.7499 3.5332L23.9617 3.24495L23.2748 5.12327ZM23.4449 5.49866H25.4449V5.06652L25.2665 4.67292L23.4449 5.49866ZM23.4449 7.03776L25.25 7.89907L25.4449 7.49048V7.03776H23.4449ZM23.2748 7.39438L24.1258 9.20427L24.7722 8.90033L25.0798 8.25569L23.2748 7.39438ZM22.9155 7.56331V9.56331H23.3623L23.7666 9.3732L22.9155 7.56331ZM21.3651 7.56331L20.4759 9.35477L20.896 9.56331H21.3651V7.56331ZM21.0248 7.39438L19.1835 8.17534L19.4726 8.85676L20.1356 9.18585L21.0248 7.39438ZM14.2012 12.054H12.2012V12.4606L12.36 12.835L14.2012 12.054ZM14.2012 10.5149L12.3461 9.76741L12.2012 10.1271V10.5149H14.2012ZM14.3525 12.4106L12.5112 13.1916L12.8003 13.873L13.4633 14.2021L14.3525 12.4106ZM14.6928 12.5795L13.8036 14.371L14.2237 14.5795H14.6928V12.5795ZM16.2432 12.5795V14.5795H16.69L17.0943 14.3894L16.2432 12.5795ZM16.6025 12.4106L17.4535 14.2205L18.0999 13.9166L18.4075 13.2719L16.6025 12.4106ZM16.7726 12.054L18.5777 12.9153L18.7726 12.5067V12.054H16.7726ZM16.7726 10.5149H18.7726V10.0828L18.5942 9.68916L16.7726 10.5149ZM16.6025 10.1395L18.424 9.31377L18.0776 8.54943L17.2894 8.26118L16.6025 10.1395ZM16.2432 10.0081L16.9302 8.1298L16.5975 8.00812H16.2432V10.0081ZM14.6928 10.0081V8.00812H14.3202L13.9725 8.14233L14.6928 10.0081ZM14.3525 10.1395L13.6322 8.27371L12.822 8.58649L12.4974 9.39202L14.3525 10.1395ZM20.849 10.5394L18.994 9.79189L18.849 10.1516V10.5394H20.849ZM20.849 12.0785H18.849V12.4851L19.0078 12.8594L20.849 12.0785ZM21.0003 10.164L20.28 8.29819L19.4698 8.61096L19.1452 9.4165L21.0003 10.164ZM21.3406 10.0326V8.03259H20.968L20.6203 8.1668L21.3406 10.0326ZM22.891 10.0326L23.578 8.15427L23.2453 8.03259H22.891V10.0326ZM23.2503 10.164L25.0719 9.33824L24.7254 8.57391L23.9373 8.28566L23.2503 10.164ZM23.4205 10.5394H25.4205V10.1072L25.242 9.71363L23.4205 10.5394ZM23.4205 12.0785L25.2255 12.9398L25.4205 12.5312V12.0785H23.4205ZM23.2503 12.4351L24.1014 14.245L24.7477 13.941L25.0553 13.2964L23.2503 12.4351ZM22.891 12.604V14.604H23.3378L23.7421 14.4139L22.891 12.604ZM21.3406 12.604L20.4514 14.3955L20.8716 14.604H21.3406V12.604ZM21.0003 12.4351L19.1591 13.216L19.4481 13.8975L20.1111 14.2266L21.0003 12.4351ZM13.3441 19.9433H15.3441V17.9433H13.3441V19.9433ZM13.3441 24.0829H11.3441V26.0829H13.3441V24.0829ZM9.9837 19.9433L8.0003 19.6861L7.70771 21.9433H9.9837V19.9433ZM10.1542 18.6283L8.31222 17.849L8.20585 18.1005L8.17075 18.3712L10.1542 18.6283ZM10.6899 17.3621L9.11724 16.1264L8.95209 16.3366L8.84794 16.5828L10.6899 17.3621ZM11.4934 16.3393L10.3107 14.7265L10.09 14.8884L9.92081 15.1037L11.4934 16.3393ZM12.5892 15.5358L11.777 13.7081L11.5802 13.7956L11.4065 13.923L12.5892 15.5358ZM13.685 15.0488L13.4972 13.0576L13.1716 13.0883L12.8727 13.2211L13.685 15.0488ZM14.9756 14.927L15.1786 12.9373L14.9833 12.9174L14.7878 12.9358L14.9756 14.927ZM16.1688 15.0488L16.938 13.2026L16.6655 13.0891L16.3718 13.0591L16.1688 15.0488ZM17.3376 15.5358L18.5034 13.9107L18.3178 13.7775L18.1069 13.6896L17.3376 15.5358ZM18.4578 16.3393L19.9942 15.059L19.8309 14.863L19.6236 14.7143L18.4578 16.3393ZM19.31 17.3621L21.1391 16.5531L21.0258 16.2969L20.8465 16.0817L19.31 17.3621ZM19.8701 18.6283L21.8616 18.4439L21.8314 18.1183L21.6992 17.8193L19.8701 18.6283ZM19.9918 19.9433V21.9433H22.1856L21.9833 19.7589L19.9918 19.9433ZM16.6558 19.9433V17.9433H14.6558V19.9433H16.6558ZM16.6558 24.0829V26.0829H18.6558V24.0829H16.6558ZM0.852273 4.48377H1.68019V0.48377H0.852273V4.48377ZM0.36526 4.48377H0.852273V0.48377H0.36526V4.48377ZM-1.30986 3.67859L-0.944602 3.99515L1.67512 0.972392L1.30986 0.655833L-1.30986 3.67859ZM-2 1.65585V2.16721H2V1.65585H-2ZM-2 0.876625V1.65585H2V0.876625H-2ZM-2 0.36526V0.876625H2V0.36526H-2ZM-1.04895 -1.41421L-1.41421 -1.04895L1.41421 1.77947L1.77947 1.41421L-1.04895 -1.41421ZM0.852273 -2H0.36526V2H0.852273V-2ZM29.1477 -2H0.852273V2H29.1477V-2ZM29.6104 -2H29.1477V2H29.6104V-2ZM31.3899 -1.04895L31.0246 -1.41421L28.1962 1.41421L28.5614 1.77947L31.3899 -1.04895ZM31.9756 0.827923V0.36526H27.9756V0.827923H31.9756ZM31.9756 1.6315V0.827923H27.9756V1.6315H31.9756ZM31.9756 2.09416V1.6315H27.9756V2.09416H31.9756ZM31.0695 3.85165L31.4347 3.46204L28.5166 0.726279L28.1513 1.11589L31.0695 3.85165ZM29.1477 4.48377H29.6104V0.48377H29.1477V4.48377ZM28.3198 4.48377H29.1477V0.48377H28.3198V4.48377ZM30.3198 24.1559V2.48377H26.3198V24.1559H30.3198ZM29.1477 22.1559H28.3198V26.1559H29.1477V22.1559ZM29.6347 22.1559H29.1477V26.1559H29.6347V22.1559ZM31.4142 23.1069L31.049 22.7417L28.2205 25.5701L28.5858 25.9354L31.4142 23.1069ZM32 24.9838V24.5211H28V24.9838H32ZM32 25.8117V24.9838H28V25.8117H32ZM32 26.25V25.8117H28V26.25H32ZM31.0489 28.0295L31.4142 27.6643L28.5858 24.8358L28.2205 25.2011L31.0489 28.0295ZM29.1477 28.6153H29.6347V24.6153H29.1477V28.6153ZM0.852273 28.6153H29.1477V24.6153H0.852273V28.6153ZM0.38961 28.6153H0.852273V24.6153H0.38961V28.6153ZM-1.25288 27.8416L-0.911972 28.1338L1.69119 25.0968L1.35028 24.8046L-1.25288 27.8416ZM-1.9513 25.8117V26.3231H2.0487V25.8117H-1.9513ZM-1.9513 24.9351V25.8117H2.0487V24.9351H-1.9513ZM-1.9513 24.5698V24.9351H2.0487V24.5698H-1.9513ZM-1.2205 22.9208L-1.56141 23.3834L1.65881 25.7562L1.99972 25.2936L-1.2205 22.9208ZM0.852273 22.1072H0.38961V26.1072H0.852273V22.1072ZM1.68019 22.1072H0.852273V26.1072H1.68019V22.1072ZM-0.319805 2.48377V24.1072H3.68019V2.48377H-0.319805ZM9.55356 12.0296V10.4905H5.55356V12.0296H9.55356ZM9.54604 11.6053L9.39478 11.2486L5.71233 12.8105L5.86359 13.1672L9.54604 11.6053ZM8.93435 10.7637L8.59401 10.5947L6.81562 14.1777L7.15596 14.3466L8.93435 10.7637ZM9.59558 10.5551H8.04515V14.5551H9.59558V10.5551ZM9.10376 10.5763L8.74452 10.7452L10.4466 14.365L10.8059 14.1961L9.10376 10.5763ZM8.31995 11.1683L8.14978 11.5249L11.7599 13.2475L11.93 12.8909L8.31995 11.1683ZM8.12499 10.4905V12.0296H12.125V10.4905H8.12499ZM8.13324 10.9408L8.30341 11.3162L11.9466 9.66474L11.7764 9.28935L8.13324 10.9408ZM8.90861 11.862L9.26786 11.9934L10.6418 8.23677L10.2825 8.10538L8.90861 11.862ZM8.04515 11.9837H9.59558V7.9837H8.04515V11.9837ZM8.42511 11.9809L8.76544 11.8495L7.32486 8.11791L6.98453 8.2493L8.42511 11.9809ZM9.40862 11.238L9.55989 10.8626L5.84975 9.36761L5.69849 9.743L9.40862 11.238ZM5.52917 5.49866V7.03776H9.52917V5.49866H5.52917ZM5.82537 4.37579L5.67411 4.75118L9.38424 6.24614L9.5355 5.87075L5.82537 4.37579ZM7.30048 3.12609L6.96015 3.25748L8.40073 6.98906L8.74106 6.85768L7.30048 3.12609ZM9.57119 2.99188H8.02077V6.99188H9.57119V2.99188ZM10.6174 3.24495L10.2582 3.11356L8.88423 6.8702L9.24347 7.00159L10.6174 3.24495ZM11.9222 4.67292L11.752 4.29753L8.10885 5.94901L8.27902 6.3244L11.9222 4.67292ZM12.1006 7.03776V5.49866H8.1006V7.03776H12.1006ZM11.7355 8.25569L11.9056 7.89907L8.29557 6.17646L8.1254 6.53308L11.7355 8.25569ZM10.4223 9.3732L10.7815 9.20427L9.07938 5.5845L8.72013 5.75342L10.4223 9.3732ZM8.02077 9.56331H9.57119V5.56331H8.02077V9.56331ZM6.79124 9.18585L7.13158 9.35477L8.90997 5.77185L8.56963 5.60292L6.79124 9.18585ZM5.68795 7.81872L5.83921 8.17534L9.52166 6.61343L9.3704 6.25681L5.68795 7.81872ZM16.2012 7.03776V5.49866H12.2012V7.03776H16.2012ZM16.1937 6.61343L16.0424 6.25681L12.36 7.81872L12.5112 8.17534L16.1937 6.61343ZM15.582 5.77185L15.2417 5.60292L13.4633 9.18585L13.8036 9.35477L15.582 5.77185ZM16.2432 5.56331H14.6928V9.56331H16.2432V5.56331ZM15.7514 5.5845L15.3922 5.75342L17.0943 9.3732L17.4535 9.20427L15.7514 5.5845ZM14.9676 6.17646L14.7974 6.53308L18.4075 8.25569L18.5777 7.89907L14.9676 6.17646ZM14.7726 5.49866V7.03776H18.7726V5.49866H14.7726ZM14.7809 5.94901L14.951 6.3244L18.5942 4.67292L18.424 4.29753L14.7809 5.94901ZM15.5563 6.8702L15.9155 7.00159L17.2894 3.24495L16.9302 3.11356L15.5563 6.8702ZM14.6928 6.99188H16.2432V2.99188H14.6928V6.99188ZM15.0728 6.98906L15.4131 6.85768L13.9725 3.12609L13.6322 3.25748L15.0728 6.98906ZM16.0563 6.24614L16.2075 5.87075L12.4974 4.37579L12.3461 4.75118L16.0563 6.24614ZM18.8735 5.49866V7.03776H22.8735V5.49866H18.8735ZM19.1697 4.37579L19.0184 4.75118L22.7286 6.24614L22.8798 5.87075L19.1697 4.37579ZM20.6448 3.12609L20.3045 3.25748L21.7451 6.98906L22.0854 6.85768L20.6448 3.12609ZM22.9155 2.99188H21.3651V6.99188H22.9155V2.99188ZM23.9617 3.24495L23.6025 3.11356L22.2286 6.8702L22.5878 7.00159L23.9617 3.24495ZM25.2665 4.67292L25.0963 4.29753L21.4532 5.94901L21.6234 6.3244L25.2665 4.67292ZM25.4449 7.03776V5.49866H21.4449V7.03776H25.4449ZM25.0798 8.25569L25.25 7.89907L21.6399 6.17646L21.4697 6.53308L25.0798 8.25569ZM23.7666 9.3732L24.1258 9.20427L22.4237 5.5845L22.0645 5.75342L23.7666 9.3732ZM21.3651 9.56331H22.9155V5.56331H21.3651V9.56331ZM20.1356 9.18585L20.4759 9.35477L22.2543 5.77185L21.914 5.60292L20.1356 9.18585ZM19.0323 7.81872L19.1835 8.17534L22.866 6.61343L22.7147 6.25681L19.0323 7.81872ZM16.2012 12.054V10.5149H12.2012V12.054H16.2012ZM16.1937 11.6297L16.0424 11.273L12.36 12.835L12.5112 13.1916L16.1937 11.6297ZM15.582 10.7881L15.2417 10.6192L13.4633 14.2021L13.8036 14.371L15.582 10.7881ZM16.2432 10.5795H14.6928V14.5795H16.2432V10.5795ZM15.7514 10.6007L15.3922 10.7697L17.0943 14.3894L17.4535 14.2205L15.7514 10.6007ZM14.9676 11.1927L14.7974 11.5493L18.4075 13.2719L18.5777 12.9153L14.9676 11.1927ZM14.7726 10.5149V12.054H18.7726V10.5149H14.7726ZM14.7809 10.9652L14.951 11.3406L18.5942 9.68916L18.424 9.31377L14.7809 10.9652ZM15.5563 11.8864L15.9155 12.0178L17.2894 8.26118L16.9302 8.1298L15.5563 11.8864ZM14.6928 12.0081H16.2432V8.00812H14.6928V12.0081ZM15.0728 12.0053L15.4131 11.8739L13.9725 8.14233L13.6322 8.27371L15.0728 12.0053ZM16.0563 11.2624L16.2075 10.887L12.4974 9.39202L12.3461 9.76741L16.0563 11.2624ZM18.849 10.5394V12.0785H22.849V10.5394H18.849ZM19.1452 9.4165L18.994 9.79189L22.7041 11.2869L22.8554 10.9115L19.1452 9.4165ZM20.6203 8.1668L20.28 8.29819L21.7206 12.0298L22.0609 11.8984L20.6203 8.1668ZM22.891 8.03259H21.3406V12.0326H22.891V8.03259ZM23.9373 8.28566L23.578 8.15427L22.2041 11.9109L22.5633 12.0423L23.9373 8.28566ZM25.242 9.71363L25.0719 9.33824L21.4287 10.9897L21.5989 11.3651L25.242 9.71363ZM25.4205 12.0785V10.5394H21.4205V12.0785H25.4205ZM25.0553 13.2964L25.2255 12.9398L21.6154 11.2172L21.4453 11.5738L25.0553 13.2964ZM23.7421 14.4139L24.1014 14.245L22.3992 10.6252L22.04 10.7941L23.7421 14.4139ZM21.3406 14.604H22.891V10.604H21.3406V14.604ZM20.1111 14.2266L20.4514 14.3955L22.2298 10.8126L21.8895 10.6436L20.1111 14.2266ZM19.0078 12.8594L19.1591 13.216L22.8415 11.6541L22.6903 11.2975L19.0078 12.8594ZM11.3441 19.9433V24.0829H15.3441V19.9433H11.3441ZM9.9837 21.9433H13.3441V17.9433H9.9837V21.9433ZM8.17075 18.3712L8.0003 19.6861L11.9671 20.2004L12.1376 18.8854L8.17075 18.3712ZM8.84794 16.5828L8.31222 17.849L11.9961 19.4076L12.5318 18.1414L8.84794 16.5828ZM9.92081 15.1037L9.11724 16.1264L12.2625 18.5977L13.0661 17.575L9.92081 15.1037ZM11.4065 13.923L10.3107 14.7265L12.6762 17.9522L13.772 17.1486L11.4065 13.923ZM12.8727 13.2211L11.777 13.7081L13.4015 17.3634L14.4973 16.8764L12.8727 13.2211ZM14.7878 12.9358L13.4972 13.0576L13.8729 17.0399L15.1634 16.9182L14.7878 12.9358ZM16.3718 13.0591L15.1786 12.9373L14.7726 16.9167L15.9658 17.0384L16.3718 13.0591ZM18.1069 13.6896L16.938 13.2026L15.3996 16.8949L16.5684 17.3819L18.1069 13.6896ZM19.6236 14.7143L18.5034 13.9107L16.1718 17.1608L17.2919 17.9644L19.6236 14.7143ZM20.8465 16.0817L19.9942 15.059L16.9213 17.6197L17.7736 18.6424L20.8465 16.0817ZM21.6992 17.8193L21.1391 16.5531L17.481 18.1711L18.041 19.4373L21.6992 17.8193ZM21.9833 19.7589L21.8616 18.4439L17.8786 18.8127L18.0004 20.1277L21.9833 19.7589ZM16.6558 21.9433H19.9918V17.9433H16.6558V21.9433ZM18.6558 24.0829V19.9433H14.6558V24.0829H18.6558ZM13.3441 26.0829H16.6558V22.0829H13.3441V26.0829Z" fill="#030301" mask="url(#path-1-inside-1_4:18)"/>
</svg>
