<svg width="45" height="45" viewBox="0 0 45 45" fill="none" xmlns="http://www.w3.org/2000/svg">
<circle cx="22.5" cy="22.5" r="22.5" fill="#FF4365"/>
<path d="M34.6242 21.9074L34.6242 21.9074L34.6184 21.9104L19.2885 29.8023L19.28 29.8066L19.2715 29.8112L18.8827 30.0209L18.5189 30.0833H17.9949H11.0914H10.6793L10.4882 29.9939L10.1939 29.6908L6.15886 25.3027L6.03813 25.1577L6.06958 25.0363L6.07319 25.0223L6.07639 25.0083L6.12343 24.8025L6.1814 24.7343L6.31753 24.6696L6.33416 24.6617L6.35048 24.6532L8.3665 23.6025L8.61675 23.4995L8.86798 23.6029L12.4078 25.4381L12.8782 25.682L13.3442 25.4297L17.7351 23.0517L19.2367 22.2384L17.7928 21.3268L10.6091 16.791L10.4092 16.5853L10.2893 16.3954V16.3104L10.3502 16.1098L10.3524 16.1053L10.5077 16.0413L10.5346 16.0303L10.5607 16.0177L14.0886 14.3191L14.1667 14.2815L14.2371 14.2311L14.3168 14.174L14.5561 14.3012L14.6143 14.3321L14.6761 14.3551L25.8944 18.5363L26.3038 18.6888L26.6939 18.4922L31.581 16.0281L33.0636 15.4276L34.3519 14.993H35.4061H37.0795L38.1444 15.329L38.6601 16.1895L38.9654 16.8358L38.8404 17.6563L37.9677 19.0156L37.9656 19.0189L37.1822 20.2287L36.1138 21.1528L34.6242 21.9074Z" stroke="#FFFCFE" stroke-width="2"/>
</svg>
